<mxfile host="Electron" modified="2023-04-14T03:50:30.617Z" agent="Mozilla/5.0 (Windows NT 10.0; Win64; x64) AppleWebKit/537.36 (KHTML, like Gecko) draw.io/21.1.2 Chrome/106.0.5249.199 Electron/21.4.3 Safari/537.36" version="21.1.2" etag="hbxgYqnS3CH33Bt2ugY_" type="device">
  <diagram id="jPbN3y7BtuFd3p1TshLQ" name="Page-1">
    <mxGraphModel dx="712" dy="869" grid="1" gridSize="10" guides="1" tooltips="1" connect="1" arrows="1" fold="1" page="1" pageScale="1" pageWidth="850" pageHeight="1100" math="0" shadow="0">
      <root>
        <mxCell id="0" />
        <mxCell id="1" parent="0" />
        <mxCell id="u7M-0GBq2vY-YbowKETD-7" value="" style="rounded=1;whiteSpace=wrap;html=1;" vertex="1" parent="1">
          <mxGeometry x="353.5" y="452" width="120" height="60" as="geometry" />
        </mxCell>
        <mxCell id="u7M-0GBq2vY-YbowKETD-37" style="edgeStyle=orthogonalEdgeStyle;rounded=0;orthogonalLoop=1;jettySize=auto;html=1;entryX=0.5;entryY=1;entryDx=0;entryDy=0;" edge="1" parent="1" source="u7M-0GBq2vY-YbowKETD-8" target="u7M-0GBq2vY-YbowKETD-36">
          <mxGeometry relative="1" as="geometry" />
        </mxCell>
        <mxCell id="u7M-0GBq2vY-YbowKETD-8" value="Main.py file" style="text;html=1;strokeColor=none;fillColor=none;align=center;verticalAlign=middle;whiteSpace=wrap;rounded=0;" vertex="1" parent="1">
          <mxGeometry x="353.5" y="452" width="120" height="60" as="geometry" />
        </mxCell>
        <mxCell id="u7M-0GBq2vY-YbowKETD-9" value="" style="rounded=1;whiteSpace=wrap;html=1;" vertex="1" parent="1">
          <mxGeometry x="163.5" y="562" width="120" height="60" as="geometry" />
        </mxCell>
        <mxCell id="u7M-0GBq2vY-YbowKETD-20" style="edgeStyle=orthogonalEdgeStyle;rounded=0;orthogonalLoop=1;jettySize=auto;html=1;entryX=0;entryY=0.5;entryDx=0;entryDy=0;" edge="1" parent="1" source="u7M-0GBq2vY-YbowKETD-10" target="u7M-0GBq2vY-YbowKETD-18">
          <mxGeometry relative="1" as="geometry" />
        </mxCell>
        <mxCell id="u7M-0GBq2vY-YbowKETD-25" style="edgeStyle=orthogonalEdgeStyle;rounded=0;orthogonalLoop=1;jettySize=auto;html=1;entryX=0;entryY=0.633;entryDx=0;entryDy=0;entryPerimeter=0;" edge="1" parent="1" source="u7M-0GBq2vY-YbowKETD-10" target="u7M-0GBq2vY-YbowKETD-24">
          <mxGeometry relative="1" as="geometry" />
        </mxCell>
        <mxCell id="u7M-0GBq2vY-YbowKETD-33" style="edgeStyle=orthogonalEdgeStyle;rounded=0;orthogonalLoop=1;jettySize=auto;html=1;" edge="1" parent="1" source="u7M-0GBq2vY-YbowKETD-10">
          <mxGeometry relative="1" as="geometry">
            <mxPoint x="133.5" y="752" as="targetPoint" />
          </mxGeometry>
        </mxCell>
        <mxCell id="u7M-0GBq2vY-YbowKETD-10" value="Regression" style="text;html=1;strokeColor=none;fillColor=none;align=center;verticalAlign=middle;whiteSpace=wrap;rounded=0;" vertex="1" parent="1">
          <mxGeometry x="163.5" y="562" width="120" height="60" as="geometry" />
        </mxCell>
        <mxCell id="u7M-0GBq2vY-YbowKETD-11" value="" style="rounded=1;whiteSpace=wrap;html=1;" vertex="1" parent="1">
          <mxGeometry x="363.5" y="562" width="120" height="60" as="geometry" />
        </mxCell>
        <mxCell id="u7M-0GBq2vY-YbowKETD-21" style="edgeStyle=orthogonalEdgeStyle;rounded=0;orthogonalLoop=1;jettySize=auto;html=1;entryX=1;entryY=0.5;entryDx=0;entryDy=0;" edge="1" parent="1" source="u7M-0GBq2vY-YbowKETD-12" target="u7M-0GBq2vY-YbowKETD-18">
          <mxGeometry relative="1" as="geometry" />
        </mxCell>
        <mxCell id="u7M-0GBq2vY-YbowKETD-26" style="edgeStyle=orthogonalEdgeStyle;rounded=0;orthogonalLoop=1;jettySize=auto;html=1;entryX=1;entryY=0.5;entryDx=0;entryDy=0;" edge="1" parent="1" source="u7M-0GBq2vY-YbowKETD-12" target="u7M-0GBq2vY-YbowKETD-24">
          <mxGeometry relative="1" as="geometry" />
        </mxCell>
        <mxCell id="u7M-0GBq2vY-YbowKETD-34" style="edgeStyle=orthogonalEdgeStyle;rounded=0;orthogonalLoop=1;jettySize=auto;html=1;" edge="1" parent="1" source="u7M-0GBq2vY-YbowKETD-12">
          <mxGeometry relative="1" as="geometry">
            <mxPoint x="133.5" y="762" as="targetPoint" />
            <Array as="points">
              <mxPoint x="423.5" y="642" />
              <mxPoint x="133.5" y="642" />
            </Array>
          </mxGeometry>
        </mxCell>
        <mxCell id="u7M-0GBq2vY-YbowKETD-12" value="Classification" style="text;html=1;strokeColor=none;fillColor=none;align=center;verticalAlign=middle;whiteSpace=wrap;rounded=0;" vertex="1" parent="1">
          <mxGeometry x="363.5" y="562" width="120" height="60" as="geometry" />
        </mxCell>
        <mxCell id="u7M-0GBq2vY-YbowKETD-13" value="" style="rounded=1;whiteSpace=wrap;html=1;" vertex="1" parent="1">
          <mxGeometry x="565.5" y="562" width="120" height="60" as="geometry" />
        </mxCell>
        <mxCell id="u7M-0GBq2vY-YbowKETD-28" style="edgeStyle=orthogonalEdgeStyle;rounded=0;orthogonalLoop=1;jettySize=auto;html=1;entryX=1;entryY=0.5;entryDx=0;entryDy=0;" edge="1" parent="1" source="u7M-0GBq2vY-YbowKETD-14" target="u7M-0GBq2vY-YbowKETD-24">
          <mxGeometry relative="1" as="geometry">
            <Array as="points">
              <mxPoint x="503.5" y="592" />
              <mxPoint x="503.5" y="652" />
              <mxPoint x="469.5" y="652" />
              <mxPoint x="469.5" y="812" />
            </Array>
          </mxGeometry>
        </mxCell>
        <mxCell id="u7M-0GBq2vY-YbowKETD-14" value="NLP" style="text;html=1;strokeColor=none;fillColor=none;align=center;verticalAlign=middle;whiteSpace=wrap;rounded=0;" vertex="1" parent="1">
          <mxGeometry x="565.5" y="562" width="120" height="60" as="geometry" />
        </mxCell>
        <mxCell id="u7M-0GBq2vY-YbowKETD-15" value="&lt;b&gt;&lt;font style=&quot;font-size: 25px;&quot;&gt;Flow of the code&lt;/font&gt;&lt;/b&gt;" style="text;html=1;strokeColor=none;fillColor=none;align=center;verticalAlign=middle;whiteSpace=wrap;rounded=0;" vertex="1" parent="1">
          <mxGeometry x="233.5" y="292" width="360" height="30" as="geometry" />
        </mxCell>
        <mxCell id="u7M-0GBq2vY-YbowKETD-16" value="" style="strokeWidth=2;html=1;shape=mxgraph.flowchart.annotation_2;align=left;labelPosition=right;pointerEvents=1;rotation=90;" vertex="1" parent="1">
          <mxGeometry x="398.5" y="332" width="50" height="405" as="geometry" />
        </mxCell>
        <mxCell id="u7M-0GBq2vY-YbowKETD-17" value="" style="ellipse;whiteSpace=wrap;html=1;" vertex="1" parent="1">
          <mxGeometry x="253.5" y="672" width="120" height="80" as="geometry" />
        </mxCell>
        <mxCell id="u7M-0GBq2vY-YbowKETD-18" value="DataProcessing file" style="text;html=1;strokeColor=none;fillColor=none;align=center;verticalAlign=middle;whiteSpace=wrap;rounded=0;" vertex="1" parent="1">
          <mxGeometry x="253.5" y="682" width="120" height="60" as="geometry" />
        </mxCell>
        <mxCell id="u7M-0GBq2vY-YbowKETD-22" value="" style="endArrow=none;html=1;rounded=0;" edge="1" parent="1" source="u7M-0GBq2vY-YbowKETD-12">
          <mxGeometry width="50" height="50" relative="1" as="geometry">
            <mxPoint x="373.5" y="582" as="sourcePoint" />
            <mxPoint x="423.5" y="532" as="targetPoint" />
          </mxGeometry>
        </mxCell>
        <mxCell id="u7M-0GBq2vY-YbowKETD-23" value="" style="ellipse;whiteSpace=wrap;html=1;" vertex="1" parent="1">
          <mxGeometry x="253.5" y="772" width="120" height="80" as="geometry" />
        </mxCell>
        <mxCell id="u7M-0GBq2vY-YbowKETD-24" value="Load Data file" style="text;html=1;strokeColor=none;fillColor=none;align=center;verticalAlign=middle;whiteSpace=wrap;rounded=0;" vertex="1" parent="1">
          <mxGeometry x="253.5" y="782" width="120" height="60" as="geometry" />
        </mxCell>
        <mxCell id="u7M-0GBq2vY-YbowKETD-32" value="" style="group" vertex="1" connectable="0" parent="1">
          <mxGeometry x="50" y="860" width="120" height="158" as="geometry" />
        </mxCell>
        <mxCell id="u7M-0GBq2vY-YbowKETD-29" value="" style="shape=mxgraph.signs.nature.snowflake;html=1;pointerEvents=1;fillColor=#66B2FF;strokeColor=#6c8ebf;verticalLabelPosition=bottom;verticalAlign=top;align=center;" vertex="1" parent="u7M-0GBq2vY-YbowKETD-32">
          <mxGeometry x="40" y="-98" width="87" height="98" as="geometry" />
        </mxCell>
        <mxCell id="u7M-0GBq2vY-YbowKETD-30" value="&lt;font style=&quot;font-size: 16px;&quot;&gt;SnowFlake DB&lt;/font&gt;" style="text;html=1;strokeColor=none;fillColor=none;align=center;verticalAlign=middle;whiteSpace=wrap;rounded=0;" vertex="1" parent="u7M-0GBq2vY-YbowKETD-32">
          <mxGeometry y="98" width="120" height="60" as="geometry" />
        </mxCell>
        <mxCell id="u7M-0GBq2vY-YbowKETD-38" value="" style="group" vertex="1" connectable="0" parent="1">
          <mxGeometry x="133.5" y="352" width="120" height="90" as="geometry" />
        </mxCell>
        <mxCell id="u7M-0GBq2vY-YbowKETD-35" value="" style="shape=image;verticalLabelPosition=bottom;labelBackgroundColor=default;verticalAlign=top;aspect=fixed;imageAspect=0;image=data:image/svg+xml,PHN2ZyB4bWxucz0iaHR0cDovL3d3dy53My5vcmcvMjAwMC9zdmciIGNsYXNzPSJtYXgtaC01IHctYXV0byIgdmlld0JveD0iMCAwIDMwMSAxNjUiIGFsdD0iU3RyZWFtbGl0IExvZ28uIENsaWNrIHRvIGdvIGJhY2sgdG8gdGhlIGhvbWUgcGFnZS4iIGZpbGw9Im5vbmUiIGhlaWdodD0iMTgiIHdpZHRoPSIzMiI+PHBhdGggZmlsbD0iI0ZGNEI0QiIgZD0iTTE1MC43MzEgMTAxLjU0N2wtNTIuNTkyLTI3LjgtOTEuMjkyLTQ4LjI1Yy0uMDg0LS4wODMtLjI1LS4wODMtLjMzNC0uMDgzLTMuMzMzLTEuNTg0LTYuNzUgMS43NS01LjUgNS4wODNMNDcuNTMgMTQ5LjEzOWwuMDA4LjAyNWMuMDUuMTE3LjA5Mi4yMzMuMTQyLjM1IDEuOTA5IDQuNDI1IDYuMDc1IDcuMTU4IDEwLjYwOSA4LjIzMy4zODMuMDg0LjY1Ny4xNTkgMS4xMTcuMjUxLjQ1OS4xMDIgMS4xLjI0MSAxLjY1LjI4My4wOS4wMDguMTc0LjAwOC4yNjYuMDE2aC4wNjdjLjA2Ni4wMDkuMTMzLjAwOS4yLjAxN2guMDkxYy4wNTkuMDA4LjEyNS4wMDguMTg0LjAwOGguMTA4Yy4wNjcuMDA5LjEzMy4wMDkuMi4wMDlhODE3LjcyOCA4MTcuNzI4IDAgMDAxNzcuMjU5IDBjLjcwOCAwIDEuNC0uMDM0IDIuMDY2LS4xbC42MzQtLjA3NWMuMDI1LS4wMDkuMDU4LS4wMDkuMDgzLS4wMTcuMTQyLS4wMTcuMjgzLS4wNDIuNDI1LS4wNjcuMjA4LS4wMjUuNDE3LS4wNjYuNjI1LS4xMDguNDE3LS4wOTIuNjA2LS4xNTggMS4xNzItLjM1My41NjUtLjE5NCAxLjUwNC0uNTM0IDIuMDkxLS44MTcuNTg4LS4yODMuOTk1LS41NTUgMS40ODctLjg2M2EyNi41NjYgMjYuNTY2IDAgMDAxLjc3NC0xLjIxNmMuMjUzLS4xOTQuNDI2LS4zMTguNjA5LS40OTNsLS4xLS4wNTgtOTkuNTY2LTUyLjYxN3oiLz48cGF0aCBmaWxsPSIjN0QzNTNCIiBkPSJNMjk0Ljc2NiAyNS40OThoLS4wODNsLTkxLjMyNiA0OC4yNSA1MC43NjcgNzUuNjA5IDQ2LjQtMTE4Ljg1OXYtLjE2N2MxLjE2Ny0zLjUtMi40MTYtNi42NjYtNS43NTgtNC44MzMiLz48cGF0aCBmaWxsPSIjQkQ0MDQzIiBkPSJNMTU1LjU5OCAyLjU1NmMtMi4zMzQtMy40MDktNy40MTctMy40MDktOS42NjcgMEw5OC4xMzkgNzMuNzQ4bDUyLjU5MiAyNy44IDk5LjY2NyA1Mi42NzRjLjYyNi0uNjEzIDEuMTI4LTEuMjEgMS42NTgtMS44NDFhMjAuOTggMjAuOTggMCAwMDIuMDY3LTMuMDI1bC01MC43NjctNzUuNjA4LTQ3Ljc1OC03MS4xOTJ6Ii8+PC9zdmc+;" vertex="1" parent="u7M-0GBq2vY-YbowKETD-38">
          <mxGeometry x="25" width="70" height="39.38" as="geometry" />
        </mxCell>
        <mxCell id="u7M-0GBq2vY-YbowKETD-36" value="Streamlit Cloud" style="text;html=1;strokeColor=none;fillColor=none;align=center;verticalAlign=middle;whiteSpace=wrap;rounded=0;" vertex="1" parent="u7M-0GBq2vY-YbowKETD-38">
          <mxGeometry y="30" width="120" height="60" as="geometry" />
        </mxCell>
      </root>
    </mxGraphModel>
  </diagram>
</mxfile>
